<svg width="20" height="21" viewBox="0 0 20 21" fill="none" xmlns="http://www.w3.org/2000/svg">
<path d="M1 9.25H2V16.75H1C0.868635 16.7502 0.738528 16.718 0.617131 16.6553C0.495734 16.5925 0.385432 16.5004 0.292542 16.3843C0.199652 16.2682 0.125999 16.1303 0.0758 15.9786C0.0256012 15.8268 -0.000156957 15.6642 7.19542e-07 15.5V10.5C-0.000156957 10.3358 0.0256012 10.1732 0.0758 10.0214C0.125999 9.86967 0.199652 9.73179 0.292542 9.61568C0.385432 9.49956 0.495734 9.4075 0.617131 9.34475C0.738528 9.282 0.868635 9.2498 1 9.25V9.25ZM17 7.375V18C16.9995 18.6628 16.7886 19.2983 16.4136 19.767C16.0387 20.2357 15.5303 20.4993 15 20.5H5C4.46973 20.4993 3.96132 20.2357 3.58637 19.767C3.21141 19.2983 3.00052 18.6628 3 18V7.375C2.99989 6.96458 3.06449 6.55816 3.19008 6.17896C3.31568 5.79975 3.49983 5.4552 3.732 5.16499C3.96416 4.87478 4.2398 4.6446 4.54317 4.4876C4.84653 4.33061 5.17167 4.24987 5.5 4.25H9V1.75C9 1.41848 9.10536 1.10054 9.29289 0.866117C9.48043 0.631696 9.73478 0.5 10 0.5C10.2652 0.5 10.5196 0.631696 10.7071 0.866117C10.8946 1.10054 11 1.41848 11 1.75V4.25H14.5C14.8283 4.24987 15.1535 4.33061 15.4568 4.4876C15.7602 4.6446 16.0358 4.87478 16.268 5.16499C16.5002 5.4552 16.6843 5.79975 16.8099 6.17896C16.9355 6.55816 17.0001 6.96458 17 7.375V7.375ZM8.25 10.5C8.25 10.191 8.17669 9.88887 8.03934 9.63192C7.90199 9.37497 7.70676 9.1747 7.47836 9.05644C7.24995 8.93818 6.99861 8.90723 6.75614 8.96752C6.51366 9.02781 6.29093 9.17663 6.11612 9.39515C5.9413 9.61367 5.82225 9.89208 5.77402 10.1952C5.72579 10.4983 5.75054 10.8124 5.84515 11.0979C5.93976 11.3835 6.09998 11.6275 6.30554 11.7992C6.5111 11.9709 6.75277 12.0625 7 12.0625C7.16416 12.0625 7.32671 12.0221 7.47837 11.9436C7.63003 11.8651 7.76784 11.75 7.88391 11.6049C7.99999 11.4598 8.09206 11.2875 8.15488 11.098C8.21769 10.9084 8.25001 10.7052 8.25 10.5V10.5ZM8 15.5H6V16.75H8V15.5ZM11 15.5H9V16.75H11V15.5ZM14.25 10.5C14.25 10.191 14.1767 9.88887 14.0393 9.63192C13.902 9.37497 13.7068 9.1747 13.4784 9.05644C13.2499 8.93818 12.9986 8.90723 12.7561 8.96752C12.5137 9.02781 12.2909 9.17663 12.1161 9.39515C11.9413 9.61367 11.8223 9.89208 11.774 10.1952C11.7258 10.4983 11.7505 10.8124 11.8452 11.0979C11.9398 11.3835 12.1 11.6275 12.3055 11.7992C12.5111 11.9709 12.7528 12.0625 13 12.0625C13.1642 12.0625 13.3267 12.0221 13.4784 11.9436C13.63 11.8651 13.7678 11.75 13.8839 11.6049C14 11.4598 14.0921 11.2875 14.1549 11.098C14.2177 10.9084 14.25 10.7052 14.25 10.5V10.5ZM14 15.5H12V16.75H14V15.5ZM20 10.5V15.5C20.0002 15.6642 19.9744 15.8268 19.9242 15.9786C19.874 16.1303 19.8003 16.2682 19.7075 16.3843C19.6146 16.5004 19.5043 16.5925 19.3829 16.6553C19.2615 16.718 19.1314 16.7502 19 16.75H18V9.25H19C19.1314 9.2498 19.2615 9.282 19.3829 9.34475C19.5043 9.4075 19.6146 9.49956 19.7075 9.61568C19.8003 9.73179 19.874 9.86967 19.9242 10.0214C19.9744 10.1732 20.0002 10.3358 20 10.5V10.5Z" fill="white"/>
</svg>
