<svg width="21" height="21" viewBox="0 0 21 21" fill="none" xmlns="http://www.w3.org/2000/svg">
<path fill-rule="evenodd" clip-rule="evenodd" d="M11.1703 3.83329C7.37629 3.83329 4.34125 6.81698 4.34125 10.4481C4.34125 11.5016 4.59489 12.496 5.04638 13.3791C5.24708 13.7717 5.14866 14.169 5.08696 14.3623C5.01312 14.5937 4.89303 14.8267 4.77184 15.0347C4.54298 15.4276 4.22286 15.8764 3.93241 16.2836C3.91351 16.31 3.89474 16.3364 3.87612 16.3625C3.74921 16.5405 3.6295 16.7094 3.52076 16.8675C3.75712 16.7713 4.0155 16.6585 4.29057 16.5367C4.34003 16.5148 4.39005 16.4926 4.4405 16.4702C4.91331 16.2604 5.42364 16.0339 5.86791 15.8779C6.11437 15.7914 6.37524 15.7138 6.62279 15.6756C6.84211 15.6418 7.19463 15.614 7.52855 15.7753C7.57037 15.7955 7.61309 15.8162 7.65665 15.8373C8.15716 16.0795 8.76851 16.3754 9.3969 16.6204C10.0984 16.894 10.7218 17.063 11.1703 17.063C14.9644 17.063 17.9994 14.0793 17.9994 10.4481C17.9994 6.81698 14.9644 3.83329 11.1703 3.83329ZM2.54314 17.1663C2.5433 17.1662 2.54651 17.1661 2.55233 17.1667C2.5459 17.1667 2.54299 17.1665 2.54314 17.1663ZM2.67458 10.4481C2.67458 5.85227 6.50069 2.16663 11.1703 2.16663C15.84 2.16663 19.6661 5.85227 19.6661 10.4481C19.6661 15.044 15.84 18.7296 11.1703 18.7296C10.3955 18.7296 9.52981 18.4611 8.79143 18.1732C8.09824 17.9029 7.42957 17.5791 6.9351 17.3397C6.92158 17.3331 6.90819 17.3267 6.89493 17.3202C6.88939 17.321 6.88335 17.3218 6.8768 17.3228C6.77628 17.3383 6.6259 17.3782 6.41993 17.4505C6.04276 17.5829 5.59583 17.7811 5.10652 17.9981C5.05983 18.0188 5.01276 18.0396 4.96532 18.0606C4.4465 18.2904 3.87537 18.5398 3.38826 18.687C3.14674 18.7599 2.87498 18.8241 2.61166 18.8324C2.36828 18.84 1.95632 18.805 1.6373 18.4813C1.27097 18.1095 1.3171 17.6403 1.36665 17.4132C1.42108 17.1636 1.53639 16.92 1.64673 16.7176C1.87202 16.3045 2.21288 15.8245 2.51893 15.3951L2.55489 15.3447C2.86442 14.9105 3.14302 14.5197 3.33169 14.1958C3.39454 14.0879 3.43749 14.0039 3.46536 13.9415C2.95799 12.8797 2.67458 11.6954 2.67458 10.4481ZM3.50678 13.8258C3.50725 13.8255 3.5064 13.8312 3.50284 13.8436C3.50452 13.8323 3.50631 13.8261 3.50678 13.8258ZM6.94563 17.3164C6.94553 17.3165 6.94295 17.3166 6.93818 17.3163C6.94333 17.3161 6.94572 17.3163 6.94563 17.3164Z" fill="white"/>
</svg>
