<svg width="21" height="21" viewBox="0 0 21 21" fill="none" xmlns="http://www.w3.org/2000/svg">
<path fill-rule="evenodd" clip-rule="evenodd" d="M11.1702 3.83335C7.37617 3.83335 4.34112 6.81704 4.34112 10.4482C4.34112 11.5017 4.59477 12.4961 5.04626 13.3792C5.24696 13.7717 5.14854 14.169 5.08684 14.3624C5.01299 14.5938 4.89291 14.8267 4.77172 15.0348C4.54286 15.4276 4.22273 15.8764 3.93229 16.2836C3.91339 16.3101 3.89461 16.3364 3.876 16.3625C3.74909 16.5406 3.62938 16.7095 3.52064 16.8676C3.757 16.7714 4.01538 16.6585 4.29045 16.5367C4.33991 16.5148 4.38993 16.4926 4.44037 16.4702C4.91319 16.2604 5.42351 16.0339 5.86779 15.878C6.11424 15.7915 6.37512 15.7139 6.62266 15.6757C6.84199 15.6419 7.19451 15.6141 7.52843 15.7754C7.57025 15.7956 7.61297 15.8163 7.65653 15.8373C8.15703 16.0796 8.76839 16.3755 9.39678 16.6205C10.0982 16.894 10.7217 17.063 11.1702 17.063C14.9642 17.063 17.9993 14.0794 17.9993 10.4482C17.9993 6.81704 14.9642 3.83335 11.1702 3.83335ZM2.54302 17.1664C2.54317 17.1662 2.54639 17.1662 2.55221 17.1667C2.54578 17.1668 2.54287 17.1665 2.54302 17.1664ZM2.67446 10.4482C2.67446 5.85233 6.50057 2.16669 11.1702 2.16669C15.8398 2.16669 19.666 5.85233 19.666 10.4482C19.666 15.0441 15.8398 18.7297 11.1702 18.7297C10.3954 18.7297 9.52968 18.4612 8.79131 18.1733C8.09812 17.903 7.42945 17.5792 6.93498 17.3398C6.92146 17.3332 6.90807 17.3267 6.89481 17.3203C6.88926 17.321 6.88323 17.3219 6.87668 17.3229C6.77616 17.3384 6.62577 17.3783 6.41981 17.4506C6.04264 17.583 5.59571 17.7812 5.1064 17.9981C5.05971 18.0188 5.01264 18.0397 4.9652 18.0607C4.44638 18.2904 3.87525 18.5398 3.38813 18.687C3.14662 18.76 2.87486 18.8241 2.61154 18.8324C2.36815 18.8401 1.9562 18.805 1.63718 18.4813C1.27085 18.1096 1.31698 17.6403 1.36653 17.4132C1.42096 17.1637 1.53627 16.92 1.64661 16.7177C1.8719 16.3046 2.21276 15.8245 2.51881 15.3952L2.55477 15.3447C2.8643 14.9105 3.14289 14.5198 3.33157 14.1959C3.39442 14.088 3.43737 14.0039 3.46523 13.9416C2.95787 12.8798 2.67446 11.6955 2.67446 10.4482ZM3.50665 13.8259C3.50712 13.8256 3.50628 13.8312 3.50272 13.8437C3.5044 13.8324 3.50618 13.8262 3.50665 13.8259ZM6.9455 17.3165C6.94541 17.3166 6.94283 17.3167 6.93805 17.3164C6.94321 17.3162 6.9456 17.3164 6.9455 17.3165Z" fill="#767678"/>
</svg>
