<svg width="6" height="6" viewBox="0 0 6 6" fill="none" xmlns="http://www.w3.org/2000/svg">
<path d="M3.70497 2.99997L5.85497 0.854971C5.94912 0.760819 6.00202 0.633121 6.00202 0.499971C6.00202 0.36682 5.94912 0.239123 5.85497 0.144971C5.76082 0.0508188 5.63312 -0.0020752 5.49997 -0.0020752C5.36682 -0.0020752 5.23912 0.0508188 5.14497 0.144971L2.99997 2.29497L0.85497 0.144971C0.760818 0.0508188 0.63312 -0.0020752 0.499969 -0.0020752C0.366819 -0.00207519 0.239121 0.0508188 0.144969 0.144971C0.0508176 0.239123 -0.00207639 0.36682 -0.00207639 0.499971C-0.00207639 0.633121 0.0508176 0.760819 0.144969 0.854971L2.29497 2.99997L0.144969 5.14497C0.0981053 5.19145 0.0609082 5.24675 0.0355239 5.30768C0.0101396 5.36861 -0.00292969 5.43396 -0.00292969 5.49997C-0.00292969 5.56598 0.0101396 5.63133 0.0355239 5.69226C0.0609082 5.75319 0.0981053 5.80849 0.144969 5.85497C0.191451 5.90183 0.246751 5.93903 0.307681 5.96442C0.368611 5.9898 0.433964 6.00287 0.499969 6.00287C0.565975 6.00287 0.631328 5.9898 0.692258 5.96442C0.753188 5.93903 0.808488 5.90183 0.85497 5.85497L2.99997 3.70497L5.14497 5.85497C5.19145 5.90183 5.24675 5.93903 5.30768 5.96442C5.36861 5.9898 5.43396 6.00287 5.49997 6.00287C5.56598 6.00287 5.63133 5.9898 5.69226 5.96442C5.75319 5.93903 5.80849 5.90183 5.85497 5.85497C5.90183 5.80849 5.93903 5.75319 5.96442 5.69226C5.9898 5.63133 6.00287 5.56598 6.00287 5.49997C6.00287 5.43396 5.9898 5.36861 5.96442 5.30768C5.93903 5.24675 5.90183 5.19145 5.85497 5.14497L3.70497 2.99997Z" fill="#A4A4A7"/>
</svg>
