<svg width="26" height="26" viewBox="0 0 26 26" fill="none" xmlns="http://www.w3.org/2000/svg">
<mask id="mask0_1041_503" style="mask-type:luminance" maskUnits="userSpaceOnUse" x="0" y="0" width="26" height="26">
<path d="M26 0H0V26H26V0Z" fill="white"/>
</mask>
<g mask="url(#mask0_1041_503)">
<path d="M25.48 13.2954C25.48 12.3736 25.3973 11.4872 25.2437 10.6362H13V15.6649H19.9963C19.695 17.2899 18.7792 18.6667 17.4023 19.5885V22.8504H21.6037C24.0618 20.5872 25.48 17.2544 25.48 13.2954Z" fill="#4285F4"/>
<path d="M13 26C16.51 26 19.4527 24.8358 21.6035 22.8505L17.4022 19.5886C16.2382 20.3686 14.749 20.8295 13 20.8295C9.61403 20.8295 6.74818 18.5427 5.72586 15.47H1.38269V18.8381C3.52184 23.0868 7.91818 26 13 26Z" fill="#34A853"/>
<path d="M5.72585 15.47C5.46585 14.69 5.31817 13.8569 5.31817 13C5.31817 12.1432 5.46585 11.31 5.72585 10.53V7.16187H1.38268C0.502319 8.91687 0 10.9024 0 13C0 15.0977 0.502319 17.0832 1.38268 18.8382L5.72585 15.47Z" fill="#FBBC04"/>
<path d="M13 5.17049C14.9085 5.17049 16.6222 5.82634 17.9695 7.11451L21.6982 3.38585C19.4468 1.28817 16.504 0 13 0C7.91818 0 3.52184 2.91317 1.38269 7.16183L5.72586 10.53C6.74818 7.45732 9.61403 5.17049 13 5.17049Z" fill="#E94235"/>
</g>
</svg>
