<svg width="22" height="20" viewBox="0 0 22 20" fill="none" xmlns="http://www.w3.org/2000/svg">
<path fill-rule="evenodd" clip-rule="evenodd" d="M16.5 17.6484C16.7761 17.6484 17 17.4245 17 17.1484V8.02656C17 7.88568 16.9406 7.75133 16.8363 7.65657L11.3363 2.65707C11.1456 2.48372 10.8544 2.48372 10.6637 2.65707L5.16368 7.65657C5.05943 7.75133 5 7.88568 5 8.02656V17.1484C5 17.4245 5.22386 17.6484 5.5 17.6484H16.5ZM18 19.6484H4C3.73478 19.6484 3.48043 19.543 3.29289 19.3555C3.10536 19.1679 3 18.9136 3 18.6484V10.1484C3 9.87222 2.77614 9.64836 2.5 9.64836H1.29332C0.836304 9.64836 0.61882 9.0858 0.956989 8.77838L10.327 0.260357C10.5111 0.0928353 10.7511 0 11 0C11.2489 0 11.4889 0.0928353 11.673 0.260357L21.043 8.77838C21.3812 9.0858 21.1637 9.64836 20.7067 9.64836H19.5C19.2239 9.64836 19 9.87222 19 10.1484V18.6484C19 18.9136 18.8946 19.1679 18.7071 19.3555C18.5196 19.543 18.2652 19.6484 18 19.6484Z" fill="#1A998E"/>
<path d="M7 13.1484C7 12.8722 7.2254 12.6441 7.49771 12.6899C8.10873 12.7927 8.67742 13.0831 9.12132 13.527C9.56522 13.9709 9.85564 14.5396 9.95844 15.1506C10.0043 15.423 9.77614 15.6484 9.5 15.6484H7.5C7.22386 15.6484 7 15.4245 7 15.1484V13.1484Z" fill="#1A998E"/>
<path d="M7 9.14836C7 8.87222 7.22417 8.6465 7.49961 8.66619C9.17352 8.7859 10.7553 9.50412 11.9497 10.6986C13.1442 11.8931 13.8625 13.4748 13.9822 15.1488C14.0019 15.4242 13.7761 15.6484 13.5 15.6484H12.5C12.2239 15.6484 12.0026 15.4239 11.975 15.1492C11.8604 14.0064 11.3548 12.9321 10.5355 12.1128C9.71626 11.2935 8.64194 10.7879 7.49919 10.6733C7.22442 10.6458 7 10.4245 7 10.1484V9.14836Z" fill="#1A998E"/>
</svg>
