<svg width="24" height="24" viewBox="0 0 24 24" fill="none" xmlns="http://www.w3.org/2000/svg">
<path fill-rule="evenodd" clip-rule="evenodd" d="M17.5 19.6484C17.7761 19.6484 18 19.4245 18 19.1484V10.0266C18 9.88568 17.9406 9.75133 17.8363 9.65657L12.3363 4.65707C12.1456 4.48372 11.8544 4.48372 11.6637 4.65707L6.16368 9.65657C6.05943 9.75133 6 9.88568 6 10.0266V19.1484C6 19.4245 6.22386 19.6484 6.5 19.6484H17.5ZM19 21.6484H5C4.73478 21.6484 4.48043 21.543 4.29289 21.3555C4.10536 21.1679 4 20.9136 4 20.6484V12.1484C4 11.8722 3.77614 11.6484 3.5 11.6484H2.29332C1.8363 11.6484 1.61882 11.0858 1.95699 10.7784L11.327 2.26036C11.5111 2.09284 11.7511 2 12 2C12.2489 2 12.4889 2.09284 12.673 2.26036L22.043 10.7784C22.3812 11.0858 22.1637 11.6484 21.7067 11.6484H20.5C20.2239 11.6484 20 11.8722 20 12.1484V20.6484C20 20.9136 19.8946 21.1679 19.7071 21.3555C19.5196 21.543 19.2652 21.6484 19 21.6484Z" fill="#1A998E"/>
<path d="M8 15.1484C8 14.8722 8.2254 14.6441 8.49771 14.6899C9.10873 14.7927 9.67742 15.0831 10.1213 15.527C10.5652 15.9709 10.8556 16.5396 10.9584 17.1506C11.0043 17.423 10.7761 17.6484 10.5 17.6484H8.5C8.22386 17.6484 8 17.4245 8 17.1484V15.1484Z" fill="#1A998E"/>
<path d="M8 11.1484C8 10.8722 8.22417 10.6465 8.49961 10.6662C10.1735 10.7859 11.7553 11.5041 12.9497 12.6986C14.1442 13.8931 14.8625 15.4748 14.9822 17.1488C15.0019 17.4242 14.7761 17.6484 14.5 17.6484H13.5C13.2239 17.6484 13.0026 17.4239 12.975 17.1492C12.8604 16.0064 12.3548 14.9321 11.5355 14.1128C10.7163 13.2935 9.64194 12.7879 8.49919 12.6733C8.22442 12.6458 8 12.4245 8 12.1484V11.1484Z" fill="#1A998E"/>
</svg>
