<svg width="14" height="14" viewBox="0 0 14 14" fill="none" xmlns="http://www.w3.org/2000/svg">
<path d="M12.8125 5.80003C12.6369 5.58918 12.4171 5.41945 12.1687 5.30282C11.9204 5.18619 11.6494 5.1255 11.375 5.12503H8.525L8.875 4.23128C9.02058 3.83995 9.06907 3.41916 9.01629 3.00498C8.96351 2.5908 8.81106 2.19561 8.57199 1.8533C8.33293 1.51099 8.01439 1.23178 7.64371 1.03962C7.27303 0.847459 6.86127 0.748088 6.44375 0.750028C6.32352 0.750279 6.20592 0.7852 6.10504 0.850605C6.00417 0.916009 5.92429 1.00912 5.875 1.11878L4.09375 5.12503H2.625C2.12772 5.12503 1.65081 5.32257 1.29917 5.6742C0.947544 6.02583 0.75 6.50275 0.75 7.00003V11.375C0.75 11.8723 0.947544 12.3492 1.29917 12.7009C1.65081 13.0525 2.12772 13.25 2.625 13.25H10.5812C11.0199 13.2499 11.4446 13.096 11.7815 12.815C12.1183 12.5341 12.346 12.144 12.425 11.7125L13.2188 7.33753C13.2678 7.06714 13.2569 6.78927 13.1867 6.52357C13.1165 6.25788 12.9887 6.01087 12.8125 5.80003ZM3.875 12H2.625C2.45924 12 2.30027 11.9342 2.18306 11.817C2.06585 11.6998 2 11.5408 2 11.375V7.00003C2 6.83427 2.06585 6.6753 2.18306 6.55809C2.30027 6.44088 2.45924 6.37503 2.625 6.37503H3.875V12ZM12 7.11253L11.2062 11.4875C11.1796 11.6331 11.1022 11.7646 10.9877 11.8584C10.8733 11.9523 10.7292 12.0024 10.5812 12H5.125V5.88128L6.825 2.05628C6.99999 2.10729 7.1625 2.19403 7.30229 2.31102C7.44207 2.428 7.55608 2.57269 7.63712 2.73596C7.71817 2.89923 7.76449 3.07752 7.77316 3.25959C7.78183 3.44166 7.75266 3.62355 7.6875 3.79378L7.35625 4.68753C7.28567 4.87644 7.26184 5.07962 7.2868 5.27973C7.31176 5.47985 7.38476 5.67095 7.49958 5.83674C7.61441 6.00253 7.76763 6.13807 7.94619 6.2318C8.12475 6.32553 8.32333 6.37467 8.525 6.37503H11.375C11.4668 6.37488 11.5575 6.39496 11.6407 6.43385C11.7239 6.47274 11.7975 6.52948 11.8563 6.60003C11.9165 6.6696 11.9606 6.75162 11.9854 6.84021C12.0103 6.9288 12.0152 7.02179 12 7.11253Z" fill="#767678"/>
</svg>
