<svg width="183" height="33" viewBox="0 0 183 33" fill="none" xmlns="http://www.w3.org/2000/svg">
<path d="M0.448242 1.72656H11.3125L23.8857 16.5215V5.63281H19.9795V1.72656H32.6748V5.63281H28.7686V32H25.8389L9.2373 12.4688V28.0938H13.1436V32H0.448242V28.0938H4.35449V5.63281H0.448242V1.72656ZM42.416 22.2344C42.4893 23.1784 42.6439 24.0207 42.8799 24.7612C43.1159 25.5018 43.4007 26.1081 43.7344 26.5801C44.0762 27.0521 44.4709 27.4427 44.9185 27.752C45.366 28.0531 45.8258 28.2687 46.2979 28.3989C46.7699 28.521 47.2744 28.582 47.8115 28.582C49.5286 28.582 50.8674 28.2524 51.8276 27.5933C52.7961 26.9259 53.5692 25.9006 54.147 24.5171L57.394 25.6401C57.1011 26.4295 56.7267 27.1742 56.271 27.874C55.8234 28.5658 55.2822 29.2046 54.6475 29.7905C54.0127 30.3765 53.3047 30.881 52.5234 31.3042C51.7503 31.7192 50.8755 32.0448 49.8989 32.2808C48.9224 32.5168 47.8929 32.6348 46.8105 32.6348C45.2074 32.6348 43.6896 32.354 42.2573 31.7925C40.8332 31.231 39.5921 30.4497 38.5342 29.4487C37.4844 28.4396 36.6502 27.1986 36.0317 25.7256C35.4214 24.2526 35.1162 22.6494 35.1162 20.916C35.1162 19.1826 35.4214 17.5713 36.0317 16.082C36.6502 14.5928 37.4844 13.3395 38.5342 12.3223C39.5921 11.2969 40.8332 10.4953 42.2573 9.91748C43.6896 9.33968 45.2074 9.05078 46.8105 9.05078C48.4137 9.05078 49.9274 9.33968 51.3516 9.91748C52.7839 10.4953 54.0249 11.2969 55.0747 12.3223C56.1326 13.3395 56.9668 14.5928 57.5771 16.082C58.1956 17.5713 58.5049 19.1826 58.5049 20.916L58.1997 22.2344H42.416ZM42.5015 18.3281H51.1196C50.908 16.4564 50.4401 15.0933 49.7158 14.2388C48.9915 13.3843 48.0312 12.957 46.835 12.957C46.2409 12.957 45.7078 13.0547 45.2358 13.25C44.7638 13.4372 44.3407 13.7424 43.9663 14.1655C43.592 14.5806 43.2786 15.138 43.0264 15.8379C42.7822 16.5296 42.6073 17.3597 42.5015 18.3281ZM59.4814 9.53906H73.1533V13.4453H69.3203L72.604 22.2344C72.8726 22.9505 73.1777 23.9678 73.5195 25.2861C73.8532 23.9678 74.1462 22.9505 74.3984 22.2344L77.5479 13.4453H75.5947V9.53906H84.3838V13.4453H81.9912L85.2871 22.2344C85.5557 22.9505 85.8608 23.9678 86.2026 25.2861C86.5526 23.8945 86.8415 22.8773 87.0693 22.2344L90.2188 13.4453H86.8252V9.53906H97.0791V13.4453H94.4912L87.8018 32H82.4307L79.7939 24.6758C79.4766 23.7969 79.1388 22.6576 78.7808 21.2578C78.4227 22.6657 78.085 23.805 77.7676 24.6758L75.1309 32H68.4658L61.7764 13.4453H59.4814V9.53906ZM106.21 28.106C106.674 28.4233 107.374 28.582 108.31 28.582C109.148 28.582 109.827 28.5332 110.348 28.4355C110.877 28.3379 111.276 28.1792 111.544 27.9595C111.813 27.7316 111.992 27.4834 112.082 27.2148C112.171 26.9382 112.216 26.5801 112.216 26.1406C112.216 25.6198 112.077 25.1722 111.801 24.7979C111.524 24.4235 111.15 24.1224 110.678 23.8945C110.206 23.6667 109.665 23.4673 109.054 23.2964C108.444 23.1174 107.801 22.9505 107.125 22.7959C106.45 22.6331 105.775 22.4582 105.099 22.271C104.424 22.0757 103.781 21.8234 103.17 21.5142C102.56 21.1968 102.019 20.8265 101.547 20.4033C101.075 19.972 100.701 19.4146 100.424 18.731C100.147 18.0474 100.009 17.262 100.009 16.375C100.009 15.5612 100.106 14.8206 100.302 14.1533C100.497 13.486 100.757 12.9204 101.083 12.4565C101.409 11.9845 101.819 11.5736 102.316 11.2236C102.812 10.8737 103.329 10.5929 103.866 10.3813C104.411 10.1698 105.022 9.99886 105.697 9.86865C106.381 9.73844 107.04 9.65299 107.675 9.6123C108.31 9.56348 109.001 9.53906 109.75 9.53906C111.378 9.53906 112.798 9.74658 114.01 10.1616C115.231 10.5767 116.191 11.1341 116.891 11.834C117.265 12.1514 117.554 12.5379 117.758 12.9937C117.969 13.4412 118.075 13.9173 118.075 14.4219C118.075 15.3659 117.742 16.1715 117.074 16.8389C116.407 17.5062 115.601 17.8398 114.657 17.8398C113.713 17.8398 112.908 17.5062 112.24 16.8389C111.573 16.1715 111.239 15.3659 111.239 14.4219C111.239 14.0801 111.288 13.7505 111.386 13.4331C110.922 13.1157 110.222 12.957 109.286 12.957C108.139 12.957 107.28 13.0954 106.71 13.3721C106.149 13.6488 105.868 14.1615 105.868 14.9102C105.868 15.3822 105.986 15.8013 106.222 16.1675C106.458 16.5256 106.78 16.8226 107.187 17.0586C107.593 17.2865 108.065 17.5062 108.603 17.7178C109.148 17.9212 109.726 18.0962 110.336 18.2427C110.946 18.381 111.573 18.5519 112.216 18.7554C112.859 18.9588 113.485 19.1663 114.096 19.3779C114.706 19.5895 115.28 19.8703 115.817 20.2202C116.362 20.562 116.838 20.9486 117.245 21.3799C117.652 21.8112 117.973 22.3524 118.209 23.0034C118.445 23.6463 118.563 24.3665 118.563 25.1641C118.563 26.3034 118.372 27.3084 117.99 28.1792C117.615 29.0418 117.111 29.7417 116.476 30.2788C115.849 30.8159 115.068 31.2554 114.132 31.5972C113.196 31.9308 112.224 32.1628 111.215 32.293C110.206 32.4232 109.083 32.4883 107.846 32.4883C105.347 32.4883 103.333 32.0122 101.803 31.0601C100.281 30.1079 99.5205 28.7936 99.5205 27.1172C99.5205 26.1732 99.8542 25.3675 100.521 24.7002C101.189 24.0329 101.994 23.6992 102.938 23.6992C103.882 23.6992 104.688 24.0329 105.355 24.7002C106.023 25.3675 106.356 26.1732 106.356 27.1172C106.356 27.459 106.308 27.7886 106.21 28.106ZM140.048 28.0938V32H121.493V28.0938H125.399V5.63281H121.493V1.72656H147.86V11.4922H143.466V9.53906C143.466 9.1403 143.429 8.72933 143.356 8.30615C143.291 7.88298 143.185 7.46387 143.039 7.04883C142.9 6.63379 142.697 6.29606 142.428 6.03564C142.16 5.76709 141.854 5.63281 141.513 5.63281H133.212V16.375H137.606V11.9805H141.513V24.6758H137.606V20.2812H133.212V28.0938H140.048ZM154.367 6.93896C153.61 6.17399 153.231 5.25033 153.231 4.16797C153.231 3.08561 153.61 2.16602 154.367 1.40918C155.132 0.644206 156.055 0.261719 157.138 0.261719C158.22 0.261719 159.14 0.644206 159.896 1.40918C160.661 2.16602 161.044 3.08561 161.044 4.16797C161.044 5.25033 160.661 6.17399 159.896 6.93896C159.14 7.6958 158.22 8.07422 157.138 8.07422C156.055 8.07422 155.132 7.6958 154.367 6.93896ZM151.278 9.53906H160.556V28.0938H162.997V32H151.278V28.0938H153.72V13.4453H151.278V9.53906ZM171.786 4.65625H174.228V9.53906H181.063V13.4453H174.228V26.1406C174.228 26.694 174.382 27.1579 174.691 27.5322C175.009 27.9066 175.505 28.0938 176.181 28.0938C176.938 28.0938 177.58 27.8455 178.109 27.3491C178.638 26.8446 178.972 26.1162 179.11 25.1641L182.04 25.6523C181.918 26.6045 181.682 27.4875 181.332 28.3013C180.99 29.1069 180.543 29.8271 179.989 30.4619C179.436 31.0885 178.748 31.585 177.926 31.9512C177.112 32.3092 176.205 32.4883 175.204 32.4883C172.771 32.4883 170.858 31.9227 169.467 30.7915C168.083 29.6522 167.392 28.1019 167.392 26.1406V13.4453H164.95V9.53906H165.438C166.692 9.53906 167.799 9.18099 168.759 8.46484C169.719 7.7487 170.728 6.47917 171.786 4.65625Z" fill="#1E232C"/>
</svg>
