<svg width="24" height="24" viewBox="0 0 24 24" fill="none" xmlns="http://www.w3.org/2000/svg">
<path d="M20.5918 16.8201L18.509 14.695C18.061 14.2707 17.4958 13.9896 16.8862 13.8878C16.2766 13.786 15.6503 13.8681 15.0879 14.1236L14.1823 13.2214C15.2495 11.8009 15.7368 10.0304 15.5463 8.26627C15.3557 6.50217 14.5015 4.87546 13.1554 3.71363C11.8094 2.5518 10.0716 1.9411 8.29175 2.00448C6.51193 2.06786 4.82228 2.80061 3.56295 4.05523C2.30362 5.30984 1.56812 6.99315 1.5045 8.76631C1.44088 10.5395 2.05387 12.2708 3.22007 13.6118C4.38627 14.9528 6.01909 15.8038 7.78983 15.9937C9.56057 16.1835 11.3377 15.698 12.7636 14.6348L13.6591 15.527C13.3724 16.088 13.2697 16.7245 13.3654 17.3467C13.4611 17.9689 13.7503 18.5456 14.1924 18.9954L16.3255 21.1205C16.8915 21.6837 17.6587 22 18.4587 22C19.2586 22 20.0258 21.6837 20.5918 21.1205C20.8793 20.8404 21.1077 20.506 21.2637 20.1367C21.4197 19.7675 21.5 19.3709 21.5 18.9703C21.5 18.5697 21.4197 18.1731 21.2637 17.8039C21.1077 17.4347 20.8793 17.1002 20.5918 16.8201ZM12.0593 12.5698C11.3552 13.2695 10.4587 13.7456 9.48316 13.938C8.5076 14.1304 7.49669 14.0304 6.57814 13.6506C5.65959 13.2709 4.87462 12.6285 4.32237 11.8045C3.77012 10.9806 3.47538 10.012 3.47538 9.02126C3.47538 8.0305 3.77012 7.06196 4.32237 6.238C4.87462 5.41403 5.65959 4.77161 6.57814 4.39188C7.49669 4.01216 8.5076 3.91216 9.48316 4.10453C10.4587 4.29689 11.3552 4.77299 12.0593 5.47268C12.5278 5.93827 12.8995 6.49136 13.1531 7.10028C13.4068 7.70921 13.5373 8.362 13.5373 9.02126C13.5373 9.68053 13.4068 10.3333 13.1531 10.9422C12.8995 11.5512 12.5278 12.1043 12.0593 12.5698ZM19.1731 19.657C19.0795 19.7509 18.9682 19.8255 18.8456 19.8764C18.723 19.9273 18.5915 19.9535 18.4587 19.9535C18.3258 19.9535 18.1943 19.9273 18.0717 19.8764C17.9491 19.8255 17.8378 19.7509 17.7443 19.657L15.6111 17.5318C15.5168 17.4387 15.442 17.3278 15.3909 17.2056C15.3398 17.0835 15.3135 16.9524 15.3135 16.8201C15.3135 16.6878 15.3398 16.5568 15.3909 16.4346C15.442 16.3125 15.5168 16.2016 15.6111 16.1084C15.7047 16.0144 15.816 15.9399 15.9386 15.889C16.0612 15.8381 16.1927 15.8119 16.3255 15.8119C16.4584 15.8119 16.5899 15.8381 16.7125 15.889C16.8351 15.9399 16.9464 16.0144 17.0399 16.1084L19.1731 18.2335C19.2674 18.3267 19.3422 18.4376 19.3933 18.5597C19.4444 18.6819 19.4707 18.8129 19.4707 18.9453C19.4707 19.0776 19.4444 19.2086 19.3933 19.3308C19.3422 19.4529 19.2674 19.5638 19.1731 19.657Z" fill="#A4A4A7"/>
</svg>
