<svg width="21" height="20" viewBox="0 0 21 20" fill="none" xmlns="http://www.w3.org/2000/svg">
<path d="M19.5918 14.8201L17.509 12.695C17.061 12.2707 16.4958 11.9896 15.8862 11.8878C15.2766 11.786 14.6503 11.8681 14.0879 12.1236L13.1823 11.2214C14.2495 9.8009 14.7368 8.03038 14.5463 6.26627C14.3557 4.50217 13.5015 2.87546 12.1554 1.71363C10.8094 0.551796 9.07157 -0.0588983 7.29175 0.00448245C5.51193 0.0678632 3.82228 0.800613 2.56295 2.05523C1.30362 3.30984 0.568118 4.99315 0.504499 6.76631C0.44088 8.53947 1.05387 10.2708 2.22007 11.6118C3.38627 12.9528 5.01909 13.8038 6.78983 13.9937C8.56057 14.1835 10.3377 13.698 11.7636 12.6348L12.6591 13.527C12.3724 14.088 12.2697 14.7245 12.3654 15.3467C12.4611 15.9689 12.7503 16.5456 13.1924 16.9954L15.3255 19.1205C15.8915 19.6837 16.6587 20 17.4587 20C18.2586 20 19.0258 19.6837 19.5918 19.1205C19.8793 18.8404 20.1077 18.506 20.2637 18.1367C20.4197 17.7675 20.5 17.3709 20.5 16.9703C20.5 16.5697 20.4197 16.1731 20.2637 15.8039C20.1077 15.4347 19.8793 15.1002 19.5918 14.8201ZM11.0593 10.5698C10.3552 11.2695 9.45872 11.7456 8.48316 11.938C7.5076 12.1304 6.49669 12.0304 5.57814 11.6506C4.65959 11.2709 3.87462 10.6285 3.32237 9.80453C2.77012 8.98057 2.47538 8.01203 2.47538 7.02126C2.47538 6.0305 2.77012 5.06196 3.32237 4.238C3.87462 3.41403 4.65959 2.77161 5.57814 2.39188C6.49669 2.01216 7.5076 1.91216 8.48316 2.10453C9.45872 2.29689 10.3552 2.77299 11.0593 3.47268C11.5278 3.93827 11.8995 4.49136 12.1531 5.10028C12.4068 5.70921 12.5373 6.362 12.5373 7.02126C12.5373 7.68053 12.4068 8.33332 12.1531 8.94224C11.8995 9.55117 11.5278 10.1043 11.0593 10.5698ZM18.1731 17.657C18.0795 17.7509 17.9682 17.8255 17.8456 17.8764C17.723 17.9273 17.5915 17.9535 17.4587 17.9535C17.3258 17.9535 17.1943 17.9273 17.0717 17.8764C16.9491 17.8255 16.8378 17.7509 16.7443 17.657L14.6111 15.5318C14.5168 15.4387 14.442 15.3278 14.3909 15.2056C14.3398 15.0835 14.3135 14.9524 14.3135 14.8201C14.3135 14.6878 14.3398 14.5568 14.3909 14.4346C14.442 14.3125 14.5168 14.2016 14.6111 14.1084C14.7047 14.0144 14.816 13.9399 14.9386 13.889C15.0612 13.8381 15.1927 13.8119 15.3255 13.8119C15.4584 13.8119 15.5899 13.8381 15.7125 13.889C15.8351 13.9399 15.9464 14.0144 16.0399 14.1084L18.1731 16.2335C18.2674 16.3267 18.3422 16.4376 18.3933 16.5597C18.4444 16.6819 18.4707 16.8129 18.4707 16.9453C18.4707 17.0776 18.4444 17.2086 18.3933 17.3308C18.3422 17.4529 18.2674 17.5638 18.1731 17.657Z" fill="#A4A4A7"/>
</svg>
