<svg width="22" height="20" viewBox="0 0 22 20" fill="none" xmlns="http://www.w3.org/2000/svg">
<path d="M18.9262 1.04631L3.27955 0.618816C2.66259 0.60309 2.05579 0.778025 1.54189 1.11977C1.02799 1.46151 0.631989 1.95344 0.407884 2.52847C0.183778 3.1035 0.142474 3.73366 0.289601 4.33303C0.436729 4.93239 0.765128 5.4718 1.23003 5.8777L5.67463 9.73029C5.77885 9.82494 5.86317 9.93941 5.92267 10.067C5.98217 10.1946 6.01566 10.3328 6.02117 10.4735L6.11549 16.3546C6.12426 16.8545 6.25779 17.3442 6.50396 17.7793C6.75013 18.2144 7.10113 18.5811 7.52506 18.846C7.94899 19.111 8.43242 19.2658 8.9314 19.2964C9.43038 19.327 9.92909 19.2324 10.3822 19.0213C10.8046 18.8191 11.1764 18.5251 11.4705 18.1607L21.2005 5.8999C21.545 5.46362 21.7615 4.9402 21.8258 4.38805C21.8902 3.83589 21.7999 3.27672 21.5649 2.77291C21.33 2.2691 20.9597 1.84047 20.4954 1.53485C20.031 1.22922 19.4909 1.05863 18.9353 1.04209L18.9262 1.04631ZM19.6283 4.65796L9.89834 16.9188C9.76903 17.0765 9.5946 17.1909 9.39844 17.2466C9.20227 17.3024 8.99375 17.2968 8.80084 17.2307C8.60792 17.1646 8.43984 17.041 8.31911 16.8767C8.19839 16.7123 8.13081 16.515 8.12542 16.3111L8.02204 10.4342C8.01977 10.3561 8.01294 10.2782 8.00156 10.201L14.246 7.28914C14.4864 7.17706 14.6724 6.97408 14.7631 6.72485C14.8538 6.47563 14.8418 6.20058 14.7297 5.96022C14.6176 5.71985 14.4146 5.53385 14.1654 5.44314C13.9162 5.35243 13.6412 5.36444 13.4008 5.47653L7.15633 8.38837C7.10445 8.32999 7.04919 8.2747 6.99085 8.22279L2.55531 4.36597C2.40261 4.23081 2.29488 4.05218 2.24657 3.85406C2.19826 3.65593 2.21168 3.44777 2.28504 3.25749C2.35839 3.0672 2.48816 2.9039 2.65696 2.78946C2.82576 2.67502 3.0255 2.61493 3.22942 2.61724L18.8761 3.04474C19.06 3.05157 19.2384 3.10902 19.3918 3.21077C19.5452 3.31252 19.6675 3.45463 19.7453 3.62143C19.823 3.78823 19.8533 3.97326 19.8326 4.15615C19.812 4.33904 19.7413 4.51268 19.6283 4.65796Z" fill="white"/>
</svg>
